<svg fill="#ffff" width="192px" height="192px" viewBox="-8.96 -8.96 49.92 49.92" version="1.1"
  xmlns="http://www.w3.org/2000/svg" stroke="#ffff">
  <g id="SVGRepo_bgCarrier" stroke-width="0">
    <rect x="-8.96" y="-8.96" width="49.92" height="49.92" rx="24.96" fill="#7ed0ec" strokewidth="0"></rect>
  </g>
  <g id="SVGRepo_tracerCarrier" stroke-linecap="round" stroke-linejoin="round"></g>
  <g id="SVGRepo_iconCarrier">
    <title>database</title>
    <path
      d="M4 26.016q0 1.632 1.6 3.008t4.384 2.176 6.016 0.8 6.016-0.8 4.384-2.176 1.6-3.008v-3.392q0 1.632-1.632 2.88t-4.32 1.856-6.048 0.64-6.048-0.64-4.32-1.856-1.632-2.88v3.392zM4 20q0 1.632 1.6 3.008t4.384 2.208 6.016 0.8 6.016-0.8 4.384-2.208 1.6-3.008v-3.36q0 1.6-1.632 2.848t-4.32 1.888-6.048 0.64-6.048-0.64-4.32-1.888-1.632-2.848v3.36zM4 14.016q0 1.632 1.6 3.008t4.384 2.176 6.016 0.8 6.016-0.8 4.384-2.176 1.6-3.008v-3.392q0 1.632-1.632 2.88t-4.32 1.856-6.048 0.64-6.048-0.64-4.32-1.856-1.632-2.88v3.392zM4 8q0 1.632 1.6 3.008t4.384 2.208 6.016 0.8 6.016-0.8 4.384-2.208 1.6-3.008v-1.984q0-1.632-1.6-3.008t-4.384-2.176-6.016-0.832-6.016 0.832-4.384 2.176-1.6 3.008v1.984z"></path>
  </g>
</svg>